<?xml version="1.0" standalone="no"?>
<!DOCTYPE svg PUBLIC "-//W3C//DTD SVG 20010904//EN"
 "http://www.w3.org/TR/2001/REC-SVG-20010904/DTD/svg10.dtd">
<svg version="1.0" xmlns="http://www.w3.org/2000/svg"
 width="478.000000pt" height="478.000000pt" viewBox="0 0 478.000000 478.000000"
 preserveAspectRatio="xMidYMid meet">
<metadata>
Created by potrace 1.14, written by Peter Selinger 2001-2017
</metadata>
<g transform="translate(0.000000,478.000000) scale(0.100000,-0.100000)"
fill="#000000" stroke="none">
<path d="M1310 3498 c-10 -4 -21 -12 -26 -19 -4 -8 -3 -10 4 -5 9 5 12 -284
12 -1173 l0 -1181 173 0 173 0 -1 63 -1 62 -89 2 c-50 1 -98 2 -107 2 -17 1
-18 59 -18 1064 l0 1064 515 0 515 0 0 -749 0 -748 65 0 65 0 0 185 0 185 233
0 232 0 0 -182 0 -183 63 -3 c38 -2 62 1 63 8 0 5 0 201 0 435 0 234 0 430 0
435 -1 6 -26 9 -63 8 l-62 -3 -1 -185 c0 -102 -3 -190 -7 -195 -4 -6 -90 -10
-230 -10 l-223 0 -5 565 -5 564 -628 1 c-346 0 -636 -3 -647 -7z"/>
<path d="M2751 3495 c-10 -13 -8 -101 1 -111 4 -4 188 -7 408 -7 l400 0 0
-1066 0 -1066 -810 1 c-446 0 -813 3 -816 6 -4 5 -6 386 -4 941 l0 57 210 0
210 0 0 63 0 62 -210 0 -210 0 -1 22 c0 13 0 66 0 118 0 52 0 102 0 110 1 13
31 15 211 15 l210 0 0 64 0 64 -275 1 -275 0 0 -825 0 -824 943 2 942 3 0
1190 0 1189 -463 1 c-298 0 -466 -4 -471 -10z"/>
</g>
</svg>
